<?xml version="1.0" standalone="no"?><!DOCTYPE svg PUBLIC "-//W3C//DTD SVG 1.1//EN" "http://www.w3.org/Graphics/SVG/1.1/DTD/svg11.dtd"><svg t="1715828072460" class="icon" viewBox="0 0 1024 1024" version="1.1" xmlns="http://www.w3.org/2000/svg" p-id="2377" xmlns:xlink="http://www.w3.org/1999/xlink" width="200" height="200"><path d="M912.02 0c-16.568 0-30 13.431-30 30v963.986c0 16.568 13.431 30 30 30 16.568 0 30-13.432 30-30V30c-0.001-16.568-13.432-30-30-30zM652.072 0H161.98c-44.182 0-79.999 35.817-79.999 79.999v864.002c0 44.182 35.817 79.999 79.999 79.999h490.092c44.182 0 79.999-35.817 79.999-79.999V79.999C732.07 35.817 696.254 0 652.072 0z m0 964.001H161.98c-11.028 0-20-8.972-20-20V79.999c0-11.028 8.972-20 20-20h490.092c11.028 0 20 8.972 20 20v101.999H522.175c-16.568 0-30 13.432-30 30 0 16.568 13.431 30 30 30h149.896v90.082H343.028c-16.568 0-30 13.431-30 30 0 16.568 13.431 30 30 30h329.044v90.082H522.175c-16.568 0-30 13.431-30 30 0 16.569 13.431 29.999 30 29.999h149.896v90.083H343.028c-16.568 0-30 13.431-30 30 0 16.568 13.431 30 30 30h329.044v90.082H522.175c-16.568 0-30 13.431-30 30 0 16.568 13.431 30 30 30h149.896v101.68c0 11.023-8.971 19.995-19.999 19.995z" p-id="2378"></path></svg>