<svg t="1715250628906" class="icon" viewBox="0 0 1024 1024" version="1.1" xmlns="http://www.w3.org/2000/svg" p-id="2602" xmlns:xlink="http://www.w3.org/1999/xlink" >
    <path d="M959 581.6L822.7 393.1c-3.5-4.9-10.4-6-15.3-2.5l-47 34c-4.9 3.5-6 10.4-2.5 15.3l136.3 188.4c3.5 4.9 10.4 6 15.3 2.5l47-34c4.9-3.4 6-10.3 2.5-15.2z" fill="#ED751C" p-id="2603"></path>
    <path d="M949.1 178.2c6 0 11-4.9 11-11v-58c0-6-4.9-11-11-11H495c-6 0-11 4.9-11 11v58c0 6 4.9 11 11 11h142V926c0 6 4.9 11 11 11h58c6 0 11-4.9 11-11V178.2h232.1zM475.4 766h-58c-6 0-11 4.9-11 11v48.8c0 25-10 29.9-65.3 29.9h-6.9V699.1h75.6c37.2 0 67.6-30.4 67.6-67.6V281.7c0-37.2-30.4-67.6-67.6-67.6h-75.6v-105c0-6-4.9-11-11-11h-58c-6 0-11 4.9-11 11v105h-75.6c-37.2 0-67.6 30.4-67.6 67.6v349.8c0 37.2 30.4 67.6 67.6 67.6h75.6v156.7H122.1c-6 0-11 4.9-11 11l-1.9 55.4c0 6 4.9 11 11 11l222.3 0.1c2.4 0 5.6 0.2 8.7 0.1h55.3s79.9 5.5 79.7-106.7c0-0.4 0.2-0.7 0.2-1.1V777c0-6.1-4.9-11-11-11z m-76.5-477.9c6 0 11 4.9 11 11v317.5c0 6-4.9 11-11 11h-58c-6 0-11-4.9-11-11V299.1c0-6 4.9-11 11-11h58zM190.6 627.6c-6 0-11-4.9-11-11V299.1c0-6 4.9-11 11-11h58c6 0 11 4.9 11 11v317.5c0 6-4.9 11-11 11h-58z" fill="#ED751C" p-id="2604"></path>
</svg>