<svg t="1715250621636" class="icon" viewBox="0 0 1024 1024" xmlns="http://www.w3.org/2000/svg">
    <path d="M80.0256 79.9744C3.2256 153.6 0 179.2 0 512s3.2256 358.4 80.0256 432.0256C153.6 1020.8256 179.2 1024 512 1024s358.4-3.2256 432.0256-80.0256C1020.8256 870.4 1024 844.8 1024 512s-3.2256-358.4-80.0256-432.0256C870.4 3.1744 844.8 0 512 0S153.6 3.1744 80.0256 79.9744zM384 256c0 41.6256 22.4256 64 64 64 35.2256 0 64 12.8 64 32 0 16.0256-28.8256 32-64 32S384 396.8 384 416c0 16.0256 28.8256 32 64 32S512 460.8 512 480c0 16.0256-28.8256 32-64 32-54.4256 0-64 22.4256-64 128v128h224c128 0 224 12.8 224 32s-128 32-320 32H192v-128c0-70.4 16.0256-128 32-128 19.2 0 32 41.6256 32 96 0 51.2 16.0256 96 32 96 19.2 0 32-57.6 32-128 0-105.6256-9.6256-128-64-128-35.2256 0-64-16.0256-64-32 0-19.2 28.8256-32 64-32s64-16.0256 64-32C320 396.8 291.1744 384 256 384s-64-16.0256-64-32c0-19.2 28.8256-32 64-32 41.6256 0 64-22.4256 64-64 0-35.2256 16.0256-64 32-64C371.2 192 384 220.8256 384 256z m448 128c0 121.6-6.4 128-96 128-86.4256 0-96 9.6256-96 96 0 51.2-12.8 96-32 96-16.0256 0-32-57.6-32-128 0-121.6 6.4-128 96-128C745.6256 448 768 435.2 768 384s-22.4256-64-96-64c-51.2 0-96-16.0256-96-32 0-19.2 57.6-32 128-32h128v128zM512 640c0 35.2256-12.8 64-32 64-16.0256 0-32-28.8256-32-64s16.0256-64 32-64c19.2 0 32 28.8256 32 64z m320 0c0 35.2256-19.2 64-44.8 64-28.8256 0-38.4-22.4256-28.8256-64 9.6256-35.2256 28.8256-64 44.8-64s28.8256 28.8256 28.8256 64z"></path>
</svg>